<?xml version="1.0" encoding="UTF-8"?>
<svg xmlns="http://www.w3.org/2000/svg" viewBox="0 0 1400 460">
  <title>Hot Path vs. Cold Path</title>
  <desc>Runtime request path split into a latency-sensitive hot path and an on-demand analytical cold path.</desc>
  <defs>
    <marker id="ah" viewBox="0 0 10 10" refX="9" refY="5" markerWidth="6" markerHeight="6" orient="auto">
      <polygon points="0,0 10,5 0,10" fill="#475569"/>
    </marker>
  </defs>
  <rect width="1400" height="460" rx="8" fill="#F8FAFC" stroke="#CBD5E1" stroke-width="1.5"/>
  <rect x="0" y="0" width="1400" height="46" rx="8" fill="#0F172A"/>
  <rect x="0" y="34" width="1400" height="12" fill="#0F172A"/>
  <text x="700.0" y="30" text-anchor="middle" font-family="'Segoe UI','Helvetica Neue',Arial,sans-serif" font-size="20" font-weight="700" fill="#F1F5F9">Hot Path vs. Cold Path</text>
<rect x="10" y="58" width="1380" height="90" rx="4" fill="#EFF6FF"/>
<text x="20" y="77" font-family="'Segoe UI','Helvetica Neue',Arial,sans-serif" font-size="10" font-weight="700" fill="#1D4ED8" letter-spacing="1.4">ENTRY</text>
<rect x="10" y="148" width="680" height="268" rx="4" fill="#FFF1F2"/>
<text x="20" y="167" font-family="'Segoe UI','Helvetica Neue',Arial,sans-serif" font-size="10" font-weight="700" fill="#BE123C" letter-spacing="1.4">HOT PATH: SYNCHRONOUS</text>
<rect x="700" y="148" width="690" height="268" rx="4" fill="#ECFEFF"/>
<text x="710" y="167" font-family="'Segoe UI','Helvetica Neue',Arial,sans-serif" font-size="10" font-weight="700" fill="#0E7490" letter-spacing="1.4">COLD PATH: ON-DEMAND</text>
<rect x="130.0" y="82" width="300" height="46" rx="6" fill="#BFDBFE" stroke="#2563EB" stroke-width="1.5"/>
<text x="280.0" y="110.0" text-anchor="middle" font-family="'Segoe UI','Helvetica Neue',Arial,sans-serif" font-size="13" font-weight="600" fill="#1E3A8A">User</text>
<rect x="550.0" y="82" width="300" height="46" rx="6" fill="#BFDBFE" stroke="#2563EB" stroke-width="1.5"/>
<text x="700.0" y="110.0" text-anchor="middle" font-family="'Segoe UI','Helvetica Neue',Arial,sans-serif" font-size="13" font-weight="600" fill="#1E3A8A">Next.js Frontend</text>
<rect x="970.0" y="82" width="300" height="46" rx="6" fill="#BFDBFE" stroke="#2563EB" stroke-width="1.5"/>
<text x="1120.0" y="110.0" text-anchor="middle" font-family="'Segoe UI','Helvetica Neue',Arial,sans-serif" font-size="13" font-weight="600" fill="#1E3A8A">FastAPI Gateway</text>
<line x1="430.0" y1="105.0" x2="550.0" y2="105.0" stroke="#475569" stroke-width="2" marker-end="url(#ah)"/>
<line x1="850.0" y1="105.0" x2="970.0" y2="105.0" stroke="#475569" stroke-width="2" marker-end="url(#ah)"/>
<rect x="36.66666666666667" y="178" width="300" height="58" rx="6" fill="#FECACA" stroke="#DC2626" stroke-width="1.5"/>
<text x="186.66666666666669" y="212.0" text-anchor="middle" font-family="'Segoe UI','Helvetica Neue',Arial,sans-serif" font-size="14" font-weight="600" fill="#7F1D1D">Prediction Service</text>
<rect x="363.33333333333337" y="178" width="300" height="58" rx="6" fill="#FECACA" stroke="#DC2626" stroke-width="1.5"/>
<text x="513.3333333333334" y="212.0" text-anchor="middle" font-family="'Segoe UI','Helvetica Neue',Arial,sans-serif" font-size="14" font-weight="600" fill="#7F1D1D">Explainability Service</text>
<rect x="36.66666666666667" y="268" width="300" height="58" rx="6" fill="#FECACA" stroke="#DC2626" stroke-width="1.5"/>
<text x="186.66666666666669" y="295.0" text-anchor="middle" font-family="'Segoe UI','Helvetica Neue',Arial,sans-serif" font-size="14" font-weight="600" fill="#7F1D1D">Model + Feature Pipeline</text>
<text x="186.66666666666669" y="312.0" text-anchor="middle" font-family="'Segoe UI','Helvetica Neue',Arial,sans-serif" font-size="11" fill="#7F1D1D" opacity="0.85">Persisted artifact</text>
<rect x="363.33333333333337" y="268" width="300" height="58" rx="6" fill="#FECACA" stroke="#DC2626" stroke-width="1.5"/>
<text x="513.3333333333334" y="302.0" text-anchor="middle" font-family="'Segoe UI','Helvetica Neue',Arial,sans-serif" font-size="14" font-weight="600" fill="#7F1D1D">Response + Latency Log</text>
<rect x="720.0" y="178" width="380" height="58" rx="6" fill="#A5F3FC" stroke="#0891B2" stroke-width="1.5"/>
<text x="910.0" y="212.0" text-anchor="middle" font-family="'Segoe UI','Helvetica Neue',Arial,sans-serif" font-size="14" font-weight="600" fill="#083344">Monitoring Services</text>
<rect x="1140.0" y="178" width="220" height="58" rx="6" fill="#A5F3FC" stroke="#0891B2" stroke-width="1.5"/>
<text x="1250.0" y="212.0" text-anchor="middle" font-family="'Segoe UI','Helvetica Neue',Arial,sans-serif" font-size="14" font-weight="600" fill="#083344">Governance Layer</text>
<rect x="715.0" y="268" width="120" height="58" rx="6" fill="#A5F3FC" stroke="#0891B2" stroke-width="1.5"/>
<text x="775.0" y="302.0" text-anchor="middle" font-family="'Segoe UI','Helvetica Neue',Arial,sans-serif" font-size="12" font-weight="600" fill="#083344">Prediction Logs</text>
<rect x="850.0" y="268" width="120" height="58" rx="6" fill="#A5F3FC" stroke="#0891B2" stroke-width="1.5"/>
<text x="910.0" y="302.0" text-anchor="middle" font-family="'Segoe UI','Helvetica Neue',Arial,sans-serif" font-size="12" font-weight="600" fill="#083344">Baseline Stats</text>
<rect x="985.0" y="268" width="120" height="58" rx="6" fill="#A5F3FC" stroke="#0891B2" stroke-width="1.5"/>
<text x="1045.0" y="302.0" text-anchor="middle" font-family="'Segoe UI','Helvetica Neue',Arial,sans-serif" font-size="12" font-weight="600" fill="#083344">Evidently Reports</text>
<rect x="1140.0" y="268" width="220" height="58" rx="6" fill="#E2E8F0" stroke="#475569" stroke-width="1.5"/>
<text x="1250.0" y="302.0" text-anchor="middle" font-family="'Segoe UI','Helvetica Neue',Arial,sans-serif" font-size="12" font-weight="600" fill="#0F172A">Lifecycle Artifacts</text>
<path d="M1120.0,128 C1120.0,153.0 186.66666666666669,153.0 186.66666666666669,178" stroke="#475569" stroke-width="2" fill="none" marker-end="url(#ah)"/>
<path d="M1120.0,128 C1120.0,153.0 513.3333333333334,153.0 513.3333333333334,178" stroke="#475569" stroke-width="2" fill="none" marker-end="url(#ah)"/>
<line x1="186.66666666666669" y1="236" x2="186.66666666666669" y2="268" stroke="#475569" stroke-width="2" marker-end="url(#ah)"/>
<path d="M186.66666666666669,236 C186.66666666666669,252.0 513.3333333333334,252.0 513.3333333333334,268" stroke="#475569" stroke-width="2" fill="none" marker-end="url(#ah)"/>
<path d="M513.3333333333334,236 C513.3333333333334,252.0 186.66666666666669,252.0 186.66666666666669,268" stroke="#475569" stroke-width="2" fill="none" marker-end="url(#ah)"/>
<line x1="513.3333333333334" y1="236" x2="513.3333333333334" y2="268" stroke="#475569" stroke-width="2" marker-end="url(#ah)"/>
<path d="M1120.0,128 C1120.0,153.0 910.0,153.0 910.0,178" stroke="#475569" stroke-width="2" fill="none" marker-end="url(#ah)"/>
<path d="M1120.0,128 C1120.0,153.0 1250.0,153.0 1250.0,178" stroke="#475569" stroke-width="2" fill="none" marker-end="url(#ah)"/>
<path d="M910.0,236 C910.0,252.0 775.0,252.0 775.0,268" stroke="#475569" stroke-width="2" fill="none" marker-end="url(#ah)"/>
<line x1="910.0" y1="236" x2="910.0" y2="268" stroke="#475569" stroke-width="2" marker-end="url(#ah)"/>
<path d="M910.0,236 C910.0,252.0 1045.0,252.0 1045.0,268" stroke="#475569" stroke-width="2" fill="none" marker-end="url(#ah)"/>
<line x1="1250.0" y1="236" x2="1250.0" y2="268" stroke="#475569" stroke-width="2" marker-end="url(#ah)"/>
</svg>
